<mxfile host="app.diagrams.net" modified="2024-06-25T03:58:16.535Z" agent="Mozilla/5.0 (Windows NT 10.0; Win64; x64) AppleWebKit/537.36 (KHTML, like Gecko) Chrome/126.0.0.0 Safari/537.36" etag="VVfGZdhjwFQw8b7JZvWT" version="24.6.2" type="github">
  <diagram name="第 1 页" id="YxAOuoWvRsOyXaP2Et4D">
    <mxGraphModel dx="1234" dy="634" grid="1" gridSize="10" guides="1" tooltips="1" connect="1" arrows="1" fold="1" page="1" pageScale="1" pageWidth="827" pageHeight="1169" math="0" shadow="0">
      <root>
        <mxCell id="0" />
        <mxCell id="1" parent="0" />
        <mxCell id="Shq1p1Da7StLF_0nQVHQ-5" style="edgeStyle=orthogonalEdgeStyle;rounded=0;orthogonalLoop=1;jettySize=auto;html=1;exitX=0.25;exitY=1;exitDx=0;exitDy=0;entryX=0.5;entryY=0;entryDx=0;entryDy=0;" edge="1" parent="1" source="GOSEWkCp82heNMlC5X2k-1" target="Shq1p1Da7StLF_0nQVHQ-4">
          <mxGeometry relative="1" as="geometry" />
        </mxCell>
        <mxCell id="Shq1p1Da7StLF_0nQVHQ-6" style="edgeStyle=orthogonalEdgeStyle;rounded=0;orthogonalLoop=1;jettySize=auto;html=1;exitX=0.75;exitY=1;exitDx=0;exitDy=0;entryX=0.5;entryY=0;entryDx=0;entryDy=0;" edge="1" parent="1" source="GOSEWkCp82heNMlC5X2k-1" target="Shq1p1Da7StLF_0nQVHQ-2">
          <mxGeometry relative="1" as="geometry" />
        </mxCell>
        <mxCell id="GOSEWkCp82heNMlC5X2k-1" value="重頭開始戰鬥" style="rounded=1;whiteSpace=wrap;html=1;" parent="1" vertex="1">
          <mxGeometry x="100" y="330" width="120" height="60" as="geometry" />
        </mxCell>
        <mxCell id="Shq1p1Da7StLF_0nQVHQ-2" value="打敗敵人" style="rounded=1;whiteSpace=wrap;html=1;" vertex="1" parent="1">
          <mxGeometry x="180" y="475" width="120" height="60" as="geometry" />
        </mxCell>
        <mxCell id="Shq1p1Da7StLF_0nQVHQ-9" style="edgeStyle=orthogonalEdgeStyle;rounded=0;orthogonalLoop=1;jettySize=auto;html=1;exitX=0;exitY=0.5;exitDx=0;exitDy=0;entryX=0;entryY=0.5;entryDx=0;entryDy=0;" edge="1" parent="1" source="Shq1p1Da7StLF_0nQVHQ-4" target="GOSEWkCp82heNMlC5X2k-1">
          <mxGeometry relative="1" as="geometry" />
        </mxCell>
        <mxCell id="Shq1p1Da7StLF_0nQVHQ-4" value="死亡" style="rounded=1;whiteSpace=wrap;html=1;" vertex="1" parent="1">
          <mxGeometry x="40" y="475" width="120" height="60" as="geometry" />
        </mxCell>
      </root>
    </mxGraphModel>
  </diagram>
</mxfile>
